<svg xmlns="http://www.w3.org/2000/svg" xmlns:xlink="http://www.w3.org/1999/xlink" version="1.1" width="256" height="256" viewBox="0 0 256 256" xml:space="preserve">

<defs>
</defs>
<g style="stroke: none; stroke-width: 0; stroke-dasharray: none; stroke-linecap: butt; stroke-linejoin: miter; stroke-miterlimit: 10; fill: none; fill-rule: nonzero; opacity: 1;" transform="translate(1.4065934065934016 1.4065934065934016) scale(2.81 2.81)" >
	<path d="M 88.852 45.148 c 0 11.119 -4.138 21.272 -10.959 29.002 C 69.858 83.256 58.1 89 45 89 c -12.061 0 -22.986 -4.869 -30.914 -12.75 C 5.772 67.986 0.753 56.41 1.172 43.667 C 1.907 21.325 19.797 2.821 42.105 1.388 C 59.633 0.263 75.129 9.442 83.12 23.455 C 86.768 29.852 88.852 37.257 88.852 45.148 z" style="stroke: none; stroke-width: 1; stroke-dasharray: none; stroke-linecap: butt; stroke-linejoin: miter; stroke-miterlimit: 10; fill: rgb(90,170,231); fill-rule: nonzero; opacity: 1;" transform=" matrix(1 0 0 1 0 0) " stroke-linecap="round" />
	<path d="M 65.589 6.44 c -0.367 2.932 -2.867 5.201 -5.898 5.201 h -9.964 c -3.284 0 -5.946 2.662 -5.946 5.946 v 2.571 c 0 3.284 2.662 5.946 5.946 5.946 h 11.02 c 3.284 0 5.946 2.662 5.946 5.946 s -2.662 5.946 -5.946 5.946 H 47.156 c -3.284 0 -5.946 2.662 -5.946 5.946 v 3.707 c 0 6.384 5.175 11.56 11.56 11.56 h 3.049 c 6.734 0 12.193 5.459 12.193 12.193 v 0.02 v 11.048 c 3.691 -2.281 7.025 -5.083 9.882 -8.32 c 6.821 -7.73 10.959 -17.883 10.959 -29.002 c 0 -7.891 -2.084 -15.295 -5.732 -21.692 C 79.013 16.254 72.916 10.345 65.589 6.44 z" style="stroke: none; stroke-width: 1; stroke-dasharray: none; stroke-linecap: butt; stroke-linejoin: miter; stroke-miterlimit: 10; fill: rgb(145,220,90); fill-rule: nonzero; opacity: 1;" transform=" matrix(1 0 0 1 0 0) " stroke-linecap="round" />
	<path d="M 20.693 76.595 c 0 -2.308 1.871 -4.178 4.178 -4.178 c 2.308 0 4.178 -1.871 4.178 -4.178 v -5.143 c 0 -2.308 -1.871 -4.178 -4.178 -4.178 H 3.366 c 2.186 6.613 5.892 12.533 10.72 17.332 c 2.018 2.006 4.232 3.813 6.607 5.398 V 76.595 z" style="stroke: none; stroke-width: 1; stroke-dasharray: none; stroke-linecap: butt; stroke-linejoin: miter; stroke-miterlimit: 10; fill: rgb(145,220,90); fill-rule: nonzero; opacity: 1;" transform=" matrix(1 0 0 1 0 0) " stroke-linecap="round" />
	<path d="M 18.283 28.882 c 2.751 0 4.982 -2.23 4.982 -4.982 V 7.11 C 10.472 14.492 1.683 28.151 1.172 43.667 c -0.061 1.849 0.006 3.67 0.168 5.463 h 6.98 c 2.751 0 4.982 -2.23 4.982 -4.982 V 33.864 C 13.301 31.112 15.531 28.882 18.283 28.882 z" style="stroke: none; stroke-width: 1; stroke-dasharray: none; stroke-linecap: butt; stroke-linejoin: miter; stroke-miterlimit: 10; fill: rgb(145,220,90); fill-rule: nonzero; opacity: 1;" transform=" matrix(1 0 0 1 0 0) " stroke-linecap="round" />
	<path d="M 45 90 c -11.93 0 -23.159 -4.631 -31.619 -13.041 C 4.448 68.081 -0.243 56.246 0.172 43.635 C 0.923 20.845 19.314 1.85 42.041 0.39 c 17.302 -1.104 33.375 7.538 41.948 22.569 c 3.836 6.726 5.863 14.398 5.863 22.188 c 0 10.937 -3.98 21.472 -11.209 29.664 C 70.126 84.464 57.863 90 45 90 z M 45.008 2.295 c -0.942 0 -1.887 0.03 -2.839 0.091 C 20.458 3.78 2.888 21.928 2.171 43.7 c -0.396 12.05 4.085 23.357 12.62 31.841 C 22.874 83.575 33.603 88 45 88 c 12.29 0 24.006 -5.289 32.144 -14.513 c 6.906 -7.826 10.709 -17.891 10.709 -28.34 c 0 -7.442 -1.937 -14.772 -5.601 -21.197 C 74.532 10.414 60.443 2.295 45.008 2.295 z" style="stroke: none; stroke-width: 1; stroke-dasharray: none; stroke-linecap: butt; stroke-linejoin: miter; stroke-miterlimit: 10; fill: rgb(0,0,0); fill-rule: nonzero; opacity: 1;" transform=" matrix(1 0 0 1 0 0) " stroke-linecap="round" />
	<path d="M 68.012 83.47 c -0.168 0 -0.335 -0.042 -0.487 -0.127 c -0.316 -0.176 -0.513 -0.511 -0.513 -0.873 V 71.422 c 0 -5.772 -4.308 -10.558 -10.02 -11.153 c -0.374 -0.039 -0.752 -0.06 -1.136 -0.061 c -5.807 0.448 -10.295 -1.213 -12.969 -4.809 c -1.745 -2.211 -2.677 -4.898 -2.677 -7.751 v -3.707 c 0 -3.83 3.116 -6.946 6.946 -6.946 h 13.592 c 2.727 0 4.945 -2.219 4.945 -4.946 s -2.219 -4.946 -4.945 -4.946 H 49.728 c -3.83 0 -6.946 -3.116 -6.946 -6.946 v -2.571 c 0 -3.83 3.116 -6.946 6.946 -6.946 h 9.964 c 2.487 0 4.597 -1.859 4.905 -4.325 c 0.041 -0.326 0.24 -0.612 0.532 -0.763 c 0.293 -0.151 0.64 -0.15 0.931 0.005 c 7.524 4.011 13.725 10.028 17.93 17.402 c 3.836 6.726 5.863 14.398 5.863 22.188 c 0 10.937 -3.98 21.472 -11.209 29.664 c -2.914 3.302 -6.314 6.165 -10.106 8.509 C 68.377 83.42 68.194 83.47 68.012 83.47 z M 55.818 58.208 c 0.461 0 0.926 0.024 1.382 0.072 c 6.733 0.701 11.812 6.342 11.812 13.121 v 9.23 c 3.015 -2.041 5.745 -4.438 8.132 -7.144 c 6.906 -7.827 10.709 -17.892 10.709 -28.341 c 0 -7.442 -1.937 -14.772 -5.602 -21.197 c -3.803 -6.669 -9.314 -12.177 -15.991 -15.998 c -0.945 2.75 -3.56 4.688 -6.568 4.688 h -9.964 c -2.728 0 -4.946 2.219 -4.946 4.946 v 2.571 c 0 2.728 2.218 4.946 4.946 4.946 h 11.021 c 3.83 0 6.945 3.116 6.945 6.946 s -3.115 6.946 -6.945 6.946 H 47.156 c -2.727 0 -4.946 2.219 -4.946 4.946 v 3.707 c 0 2.398 0.783 4.658 2.264 6.535 c 2.298 3.089 6.076 4.438 11.266 4.027 C 55.766 58.209 55.792 58.208 55.818 58.208 z" style="stroke: none; stroke-width: 1; stroke-dasharray: none; stroke-linecap: butt; stroke-linejoin: miter; stroke-miterlimit: 10; fill: rgb(0,0,0); fill-rule: nonzero; opacity: 1;" transform=" matrix(1 0 0 1 0 0) " stroke-linecap="round" />
	<path d="M 20.693 82.648 c -0.194 0 -0.388 -0.057 -0.555 -0.168 c -2.428 -1.62 -4.702 -3.478 -6.757 -5.521 C 8.409 72.017 4.617 65.887 2.417 59.231 c -0.101 -0.305 -0.049 -0.639 0.139 -0.899 c 0.188 -0.26 0.49 -0.414 0.811 -0.414 h 21.506 c 2.855 0 5.178 2.322 5.178 5.178 v 5.931 c 0 2.365 -1.852 4.28 -4.216 4.358 l -0.928 0.031 c -0.011 0.001 -0.022 0.001 -0.034 0.001 c -1.752 0 -3.178 1.426 -3.178 3.178 v 5.054 c 0 0.369 -0.203 0.708 -0.528 0.882 C 21.017 82.609 20.855 82.648 20.693 82.648 z M 4.774 59.918 c 2.151 5.85 5.595 11.228 10.018 15.623 c 1.519 1.51 3.162 2.913 4.902 4.188 v -3.134 c 0 -2.849 2.313 -5.168 5.16 -5.178 l 0.913 -0.03 c 1.28 -0.043 2.283 -1.08 2.283 -2.36 v -5.931 c 0 -1.752 -1.426 -3.178 -3.178 -3.178 H 4.774 z" style="stroke: none; stroke-width: 1; stroke-dasharray: none; stroke-linecap: butt; stroke-linejoin: miter; stroke-miterlimit: 10; fill: rgb(0,0,0); fill-rule: nonzero; opacity: 1;" transform=" matrix(1 0 0 1 0 0) " stroke-linecap="round" />
	<path d="M 8.319 50.131 h -6.98 c -0.518 0 -0.95 -0.395 -0.996 -0.91 c -0.172 -1.912 -0.229 -3.791 -0.171 -5.586 C 0.676 28.321 9.333 13.994 22.764 6.244 c 0.31 -0.179 0.691 -0.179 1 0 c 0.31 0.178 0.5 0.508 0.5 0.866 V 23.9 c 0 3.298 -2.683 5.981 -5.981 5.981 c -2.196 0 -3.982 1.786 -3.982 3.982 v 10.285 C 14.301 47.447 11.618 50.131 8.319 50.131 z M 2.262 48.131 h 6.058 c 2.195 0 3.981 -1.786 3.981 -3.982 V 33.864 c 0 -3.298 2.684 -5.982 5.982 -5.982 c 2.195 0 3.981 -1.786 3.981 -3.981 V 8.883 C 10.285 16.467 2.634 29.65 2.171 43.7 C 2.124 45.151 2.153 46.608 2.262 48.131 z" style="stroke: none; stroke-width: 1; stroke-dasharray: none; stroke-linecap: butt; stroke-linejoin: miter; stroke-miterlimit: 10; fill: rgb(0,0,0); fill-rule: nonzero; opacity: 1;" transform=" matrix(1 0 0 1 0 0) " stroke-linecap="round" />
	<path d="M 74.263 1 c 8.057 0 14.589 6.532 14.589 14.589 c 0 2.288 -0.527 4.453 -1.466 6.381 l -0.001 0 c -1.767 3.546 -7.805 13.659 -13.123 22.666 c -5.318 -9.007 -11.356 -19.121 -13.123 -22.666 l -0.001 0 c -0.939 -1.927 -1.466 -4.092 -1.466 -6.381 C 59.674 7.532 66.206 1 74.263 1 z" style="stroke: none; stroke-width: 1; stroke-dasharray: none; stroke-linecap: butt; stroke-linejoin: miter; stroke-miterlimit: 10; fill: rgb(226,96,96); fill-rule: nonzero; opacity: 1;" transform=" matrix(1 0 0 1 0 0) " stroke-linecap="round" />
	<circle cx="74.25999999999999" cy="15" r="6.05" style="stroke: none; stroke-width: 1; stroke-dasharray: none; stroke-linecap: butt; stroke-linejoin: miter; stroke-miterlimit: 10; fill: rgb(255,255,255); fill-rule: nonzero; opacity: 1;" transform="  matrix(1 0 0 1 0 0) "/>
	<path d="M 74.263 45.636 L 74.263 45.636 c -0.354 0 -0.682 -0.187 -0.861 -0.492 l -2.3 -3.891 c -4.584 -7.75 -9.325 -15.765 -10.856 -18.838 c -1.044 -2.139 -1.571 -4.433 -1.571 -6.826 C 58.674 6.993 65.667 0 74.263 0 c 8.597 0 15.59 6.993 15.59 15.589 c 0 2.389 -0.527 4.683 -1.566 6.818 c -1.539 3.086 -6.291 11.119 -10.886 18.886 l -2.276 3.85 C 74.944 45.449 74.616 45.636 74.263 45.636 z M 74.263 2 C 66.77 2 60.674 8.096 60.674 15.589 c 0 2.085 0.459 4.084 1.364 5.942 c 1.496 2.999 6.215 10.977 10.778 18.692 l 1.446 2.447 l 1.409 -2.384 c 4.58 -7.742 9.316 -15.748 10.818 -18.763 c 0.903 -1.851 1.362 -3.85 1.362 -5.934 C 87.853 8.096 81.756 2 74.263 2 z" style="stroke: none; stroke-width: 1; stroke-dasharray: none; stroke-linecap: butt; stroke-linejoin: miter; stroke-miterlimit: 10; fill: rgb(0,0,0); fill-rule: nonzero; opacity: 1;" transform=" matrix(1 0 0 1 0 0) " stroke-linecap="round" />
	<path d="M 74.263 22.05 c -3.887 0 -7.049 -3.163 -7.049 -7.05 s 3.162 -7.049 7.049 -7.049 c 3.888 0 7.05 3.162 7.05 7.049 S 78.15 22.05 74.263 22.05 z M 74.263 9.951 c -2.784 0 -5.049 2.265 -5.049 5.049 c 0 2.785 2.265 5.05 5.049 5.05 s 5.05 -2.265 5.05 -5.05 C 79.313 12.216 77.047 9.951 74.263 9.951 z" style="stroke: none; stroke-width: 1; stroke-dasharray: none; stroke-linecap: butt; stroke-linejoin: miter; stroke-miterlimit: 10; fill: rgb(0,0,0); fill-rule: nonzero; opacity: 1;" transform=" matrix(1 0 0 1 0 0) " stroke-linecap="round" />
</g>
</svg>